<svg width="141" height="69" viewBox="0 0 141 69" fill="none" xmlns="http://www.w3.org/2000/svg">
<g clip-path="url(#clip0_401_2332)">
<path d="M33.8368 13.4863L0.302835 13.5065C0.131229 13.5065 0 13.6377 0 13.8094V21.4711C0 21.6326 0.131229 21.7739 0.302835 21.7739H11.3159C11.3159 24.6004 11.3159 37.5213 11.3159 46.8588C11.3159 57.3974 22.7934 57.7103 22.7934 57.7103V21.7739H33.8267C33.9983 21.7739 34.1295 21.6427 34.1295 21.4711V13.8094C34.1396 13.6277 33.9983 13.4863 33.8368 13.4863Z" fill="white"/>
<path d="M109.172 29.567C109.172 21.35 108.99 19.856 105.134 16.3734C101.258 12.8706 89.0131 13.4965 89.0131 13.4965L81.3413 13.5066C81.1696 13.5066 81.0384 13.6378 81.0384 13.8094V21.4712C81.0384 21.6327 81.1696 21.774 81.3413 21.774L92.102 21.7639C92.1626 21.7639 92.2029 21.774 92.2635 21.774C98.2596 21.774 97.6237 26.478 97.6237 26.478V29.577V42.0942V45.1932C97.6237 45.1932 98.189 49.4935 92.96 49.8569V26.2862C92.96 26.1146 92.8288 25.9834 92.6572 25.9834L81.3312 26.0036C81.1596 26.0036 81.0283 26.1348 81.0283 26.3064V57.9224C81.0283 58.0839 81.1596 58.2253 81.3312 58.2253L89.972 58.2152C90.5979 58.2252 91.4761 58.2353 92.526 58.2152H92.6572H92.6673C96.594 58.1142 102.61 57.5792 105.124 55.3079C108.98 51.8253 109.162 50.3313 109.162 42.1144C109.162 42.1144 109.162 42.0539 109.162 41.963C109.162 41.1857 109.162 37.1883 109.162 29.7285C109.172 29.6174 109.172 29.567 109.172 29.567Z" fill="white"/>
<path d="M129.392 21.7646C129.452 21.7646 129.503 21.7546 129.553 21.7546L140.314 21.7646C140.475 21.7646 140.617 21.6334 140.617 21.4618V13.8001C140.617 13.6285 140.486 13.4973 140.314 13.4973L132.642 13.4872C132.642 13.4872 120.408 12.8714 116.521 16.3641C112.665 19.8467 112.483 21.3407 112.483 29.5576C112.483 29.5576 112.483 29.6182 112.483 29.709C112.483 37.1588 112.483 41.1562 112.483 41.9436C112.483 42.0344 112.483 42.095 112.483 42.095C112.483 50.3119 112.665 51.8059 116.521 55.2885C119.035 57.5598 125.051 58.0948 128.978 58.1957H128.988H129.119C130.169 58.2159 131.047 58.2159 131.673 58.1957L140.314 58.2058C140.475 58.2058 140.617 58.0746 140.617 57.903V50.2412C140.617 50.0696 140.486 49.9384 140.314 49.9384L129.876 49.9283C129.715 49.9182 129.573 49.8879 129.392 49.8879C123.396 49.8879 124.032 45.1839 124.032 45.1839V42.095V34.2415L140.314 34.2616C140.475 34.2616 140.617 34.1304 140.617 33.9588V26.2971C140.617 26.1255 140.486 25.9942 140.314 25.9942L124.011 25.9842C124.042 24.793 124.577 21.7646 129.392 21.7646Z" fill="white"/>
<path d="M67.5124 55.4486C69.0367 58.0934 72.4083 59.0019 75.0429 57.4776C77.6877 55.9635 78.5962 52.5818 77.0719 49.937L58.387 16.2214C56.8627 13.5766 53.4912 12.6681 50.8464 14.1924C48.2016 15.7066 47.2931 19.0882 48.8174 21.7229L67.5124 55.4486Z" fill="white"/>
<path d="M77.8188 52.6927C77.8188 55.7413 75.3456 58.2144 72.2971 58.2144C69.2485 58.2144 66.7754 55.7413 66.7754 52.6927V18.967C66.7754 15.9185 69.2485 13.4453 72.2971 13.4453C75.3456 13.4453 77.8188 15.9185 77.8188 18.967V52.6927Z" fill="white"/>
<path d="M39.6113 55.449C38.087 58.0937 34.7154 59.0022 32.0808 57.478C29.436 55.9638 28.5275 52.5821 30.0518 49.9374L48.7569 16.2116C50.2711 13.5669 53.6527 12.6584 56.2975 14.1826C58.9422 15.6968 59.8507 19.0785 58.3265 21.7131L39.6113 55.449Z" fill="white"/>
<path d="M52.3908 47.1719C55.4394 47.1719 57.9125 49.645 57.9125 52.6936C57.9125 55.7421 55.4394 58.2153 52.3908 58.2153H34.8264C31.7778 58.2153 29.3047 55.7421 29.3047 52.6936C29.3047 49.645 31.7778 47.1719 34.8264 47.1719H52.3908Z" fill="white"/>
<path d="M77.8188 5.52169C77.8188 8.57023 75.3456 11.0434 72.2971 11.0434C69.2485 11.0434 66.7754 8.57023 66.7754 5.52169C66.7855 2.47315 69.2485 0 72.2971 0C75.3456 0 77.8188 2.47315 77.8188 5.52169Z" fill="white"/>
<path d="M2.76575 68.229H1.91781V64.5142H0.423828V63.8379H4.23955V64.5142H2.76575V68.229Z" fill="white"/>
<path d="M8.812 65.1603C8.812 65.4631 8.72115 65.7256 8.53945 65.9375C8.35775 66.1495 8.0852 66.311 7.7117 66.412V66.4221L9.08455 68.229H8.0751L6.82339 66.5331H6.248V68.229H5.41016V63.8379H6.81329C7.04547 63.8379 7.25745 63.848 7.45934 63.8783C7.66123 63.8985 7.83284 63.9388 7.97416 63.9893C8.24671 64.0903 8.4486 64.2316 8.60002 64.4234C8.74134 64.6253 8.812 64.8675 8.812 65.1603ZM6.66187 65.8568C6.85367 65.8568 7.01518 65.8467 7.15651 65.8366C7.28773 65.8164 7.39877 65.7962 7.49972 65.7659C7.66123 65.6953 7.78236 65.6145 7.85303 65.5136C7.92369 65.4025 7.95397 65.2814 7.95397 65.1502C7.95397 65.029 7.92369 64.9281 7.87321 64.8372C7.82274 64.7464 7.73189 64.6757 7.61076 64.6253C7.53 64.5849 7.42906 64.5647 7.30792 64.5445C7.18679 64.5243 7.03537 64.5243 6.85367 64.5243H6.248V65.8669H6.66187V65.8568Z" fill="white"/>
<path d="M12.2542 68.3098C12.012 68.3098 11.7899 68.2896 11.5981 68.2391C11.4063 68.1987 11.2347 68.1281 11.0934 68.0473C10.952 67.9665 10.8208 67.8555 10.7199 67.7344C10.6189 67.6132 10.5382 67.4719 10.4675 67.3205C10.417 67.1994 10.3766 67.058 10.3565 66.9167C10.3363 66.7653 10.3262 66.6038 10.3262 66.4221V63.8379H11.1741V66.3514C11.1741 66.6644 11.2145 66.9066 11.2952 67.0782C11.3861 67.27 11.5072 67.4113 11.6788 67.5022C11.8403 67.593 12.0422 67.6334 12.2744 67.6334C12.4965 67.6334 12.6984 67.593 12.87 67.5022C13.0416 67.4113 13.1627 67.2801 13.2536 67.0782C13.3343 66.9066 13.3747 66.6644 13.3747 66.3514V63.8379H14.2227V66.4221C14.2227 66.6038 14.2126 66.7754 14.1924 66.9167C14.1722 67.0681 14.1318 67.1994 14.0813 67.3205C14.0208 67.4719 13.94 67.6132 13.829 67.7344C13.728 67.8555 13.5968 67.9564 13.4454 68.0473C13.294 68.1281 13.1223 68.1987 12.9306 68.2391C12.7085 68.2896 12.4864 68.3098 12.2542 68.3098Z" fill="white"/>
<path d="M18.049 66.9679C18.049 66.8568 18.0187 66.766 17.9581 66.6953C17.8976 66.6247 17.8269 66.5742 17.726 66.5237C17.625 66.4833 17.514 66.443 17.3928 66.4127C17.2717 66.3824 17.1405 66.3622 17.0093 66.3319C16.8276 66.2915 16.6559 66.2512 16.4944 66.2007C16.3329 66.1502 16.1916 66.0796 16.0604 65.9887C15.9392 65.8978 15.8383 65.7868 15.7676 65.6455C15.697 65.5042 15.6566 65.3326 15.6566 65.1206C15.6566 64.8884 15.697 64.6865 15.7777 64.5149C15.8585 64.3433 15.9796 64.202 16.1209 64.0909C16.2623 63.9799 16.4339 63.889 16.6358 63.8386C16.8376 63.7881 17.0496 63.7578 17.302 63.7578C17.5443 63.7578 17.7966 63.778 18.0389 63.8285C18.2913 63.8789 18.5032 63.9294 18.6748 64.0102V64.6966C18.4326 64.6057 18.2105 64.5452 17.9884 64.5048C17.7663 64.4644 17.5644 64.4442 17.3727 64.4442C17.09 64.4442 16.878 64.4947 16.7266 64.5856C16.5752 64.6865 16.5045 64.8278 16.5045 65.0196C16.5045 65.1307 16.5247 65.2215 16.5752 65.2922C16.6257 65.3628 16.6963 65.4234 16.7771 65.4739C16.8578 65.5244 16.9588 65.5546 17.0698 65.5849C17.1809 65.6152 17.2919 65.6354 17.4231 65.6657C17.6149 65.7061 17.8067 65.7464 17.9783 65.807C18.16 65.8575 18.3114 65.9281 18.4528 66.019C18.5941 66.1098 18.695 66.231 18.7758 66.3824C18.8565 66.5338 18.8969 66.7155 18.8969 66.9477C18.8969 67.1798 18.8465 67.3918 18.7556 67.5634C18.6648 67.735 18.5335 67.8764 18.3619 67.9874C18.1903 68.0984 17.9884 68.1893 17.7462 68.2398C17.5039 68.2902 17.2414 68.3205 16.9588 68.3205C16.7064 68.3205 16.4641 68.3003 16.2219 68.2499C15.9796 68.1994 15.7777 68.1388 15.6162 68.048V67.3716C15.8484 67.4625 16.0604 67.5332 16.2824 67.5735C16.4944 67.6139 16.7165 67.6341 16.9487 67.6341C17.0799 67.6341 17.2111 67.624 17.3424 67.6038C17.4736 67.5836 17.5846 67.5433 17.6856 67.4928C17.7865 67.4423 17.8673 67.3716 17.9279 67.2909C18.0187 67.2 18.049 67.0991 18.049 66.9679Z" fill="white"/>
<path d="M22.2478 68.229H21.3999V64.5142H19.916V63.8379H23.7317V64.5142H22.2478V68.229Z" fill="white"/>
<path d="M27.5375 64.9988C27.4466 65.4126 27.3457 65.8265 27.2246 66.2606L26.7097 68.229H25.8719L24.4082 63.8379H25.3066L25.8618 65.5842C26.0334 66.1293 26.1646 66.6341 26.2656 67.0681H26.2858C26.3867 66.5937 26.4978 66.0991 26.6391 65.6044L27.1135 63.8379H27.9817L28.4561 65.6145C28.5873 66.1092 28.7085 66.6038 28.8094 67.0782H28.8296C28.9507 66.5533 29.0921 66.0587 29.2334 65.5943L29.7886 63.848H30.687L29.2233 68.2391H28.3854L27.8706 66.2707C27.7495 65.8265 27.6485 65.4025 27.5577 65.0089H27.5375V64.9988Z" fill="white"/>
<path d="M36.0982 66.0385C36.0982 66.3716 36.0477 66.6745 35.9468 66.9571C35.8458 67.2398 35.7045 67.4719 35.5127 67.6738C35.3209 67.8757 35.0887 68.0372 34.8061 68.1483C34.5234 68.2593 34.2105 68.3199 33.8572 68.3199C33.5039 68.3199 33.1809 68.2694 32.9083 68.1483C32.6257 68.0372 32.3935 67.8757 32.2017 67.6738C32.0099 67.4719 31.8686 67.2297 31.7676 66.9571C31.6667 66.6745 31.6162 66.3716 31.6162 66.0385C31.6162 65.7054 31.6667 65.3925 31.7676 65.1199C31.8686 64.8373 32.0099 64.6051 32.2017 64.4032C32.3935 64.2013 32.6257 64.0499 32.9083 63.9389C33.191 63.8278 33.5039 63.7773 33.8572 63.7773C34.2105 63.7773 34.5335 63.8278 34.8061 63.9389C35.0887 64.0499 35.3209 64.2114 35.5127 64.4032C35.7045 64.6051 35.8458 64.8474 35.9468 65.1199C36.0477 65.3925 36.0982 65.6953 36.0982 66.0385ZM35.23 66.0385C35.23 65.7761 35.1998 65.5338 35.1291 65.342C35.0584 65.1401 34.9676 64.9786 34.8465 64.8373C34.7253 64.706 34.584 64.6051 34.4124 64.5344C34.2408 64.4739 34.0591 64.4335 33.8572 64.4335C33.6553 64.4335 33.4736 64.4638 33.302 64.5344C33.1304 64.6051 32.9891 64.6959 32.8679 64.8373C32.7468 64.9685 32.6458 65.1401 32.5853 65.342C32.5146 65.5439 32.4843 65.7761 32.4843 66.0385C32.4843 66.301 32.5146 66.5331 32.5853 66.735C32.6559 66.9369 32.7468 67.0984 32.8679 67.2297C32.9891 67.3609 33.1304 67.4618 33.302 67.5224C33.4736 67.5931 33.6553 67.6233 33.8572 67.6233C34.0591 67.6233 34.2408 67.5931 34.4124 67.5224C34.584 67.4517 34.7253 67.3609 34.8465 67.2297C34.9676 67.0984 35.0685 66.9268 35.1291 66.735C35.1998 66.5331 35.23 66.301 35.23 66.0385Z" fill="white"/>
<path d="M40.9126 65.1603C40.9126 65.4631 40.8217 65.7256 40.6501 65.9375C40.4684 66.1495 40.1959 66.311 39.8224 66.412V66.4221L41.1952 68.229H40.1858L38.9341 66.5331H38.3587V68.229H37.5107V63.8379H38.9139C39.1461 63.8379 39.358 63.848 39.5599 63.8783C39.7618 63.8985 39.9334 63.9388 40.0747 63.9893C40.3473 64.0903 40.5492 64.2316 40.7006 64.4234C40.8419 64.6253 40.9126 64.8675 40.9126 65.1603ZM38.7625 65.8568C38.9543 65.8568 39.1158 65.8467 39.2571 65.8366C39.3883 65.8164 39.5095 65.7962 39.6003 65.7659C39.7719 65.7054 39.893 65.6246 39.9536 65.5136C40.0243 65.4025 40.0546 65.2814 40.0546 65.1502C40.0546 65.029 40.0243 64.9281 39.9738 64.8372C39.9233 64.7464 39.8325 64.6757 39.7113 64.6253C39.6306 64.5849 39.5296 64.5647 39.4085 64.5445C39.2874 64.5243 39.136 64.5243 38.9543 64.5243H38.3486V65.8669H38.7625V65.8568Z" fill="white"/>
<path d="M44.325 68.229H43.4771V64.5142H41.9932V63.8379H45.8089V64.5142H44.325V68.229Z" fill="white"/>
<path d="M47.8177 65.6448H49.9577V63.8379H50.7955V68.229H49.9577V66.3211H47.8177V68.229H46.9697V63.8379H47.8177V65.6448Z" fill="white"/>
<path d="M54.086 65.7256L55.3074 63.8379H56.2462L54.51 66.4625V68.229H53.6721V66.4625L51.9258 63.8379H52.8646L54.086 65.7256Z" fill="white"/>
<path d="M63.9385 67.1085H62.2023L61.748 68.229H60.8496L62.6767 63.8379H63.4439L65.271 68.229H64.3827L63.9385 67.1085ZM63.0603 64.8978C62.8988 65.3622 62.7575 65.7357 62.6262 66.0486L62.4647 66.4423H63.6559L63.4944 66.0486C63.3732 65.7357 63.2218 65.3521 63.0603 64.8978Z" fill="white"/>
<path d="M66.4414 68.229V63.8379H67.2793V68.229H66.4414Z" fill="white"/>
<path d="M72.8213 68.229V63.8379H74.0427C74.1538 63.8379 74.2547 63.8379 74.3758 63.848C74.4869 63.8581 74.5979 63.8682 74.6989 63.8783C74.7998 63.8884 74.9109 63.9086 75.0017 63.9287C75.1027 63.9489 75.1935 63.9691 75.2743 63.9994C75.5165 64.0701 75.7386 64.171 75.9203 64.3022C76.1121 64.4335 76.2635 64.5849 76.3947 64.7565C76.526 64.9281 76.6168 65.1199 76.6875 65.3319C76.7481 65.5439 76.7884 65.776 76.7884 66.0284C76.7884 66.2606 76.7581 66.4826 76.7077 66.6946C76.6572 66.9066 76.5663 67.0883 76.4553 67.2599C76.3443 67.4315 76.2029 67.583 76.0313 67.7142C75.8597 67.8454 75.6578 67.9464 75.4257 68.0372C75.2339 68.1079 75.0118 68.1583 74.7594 68.1987C74.5071 68.2391 74.2345 68.2492 73.9216 68.2492H72.8213V68.229ZM74.0124 67.5527C74.5071 67.5527 74.8907 67.4921 75.1733 67.3609C75.4156 67.2397 75.6074 67.0782 75.7285 66.8561C75.8597 66.6341 75.9203 66.3514 75.9203 66.0082C75.9203 65.8265 75.9001 65.665 75.8597 65.5237C75.8194 65.3824 75.7588 65.2511 75.678 65.1401C75.5973 65.029 75.5064 64.9281 75.3954 64.8473C75.2844 64.7666 75.1632 64.706 75.0219 64.6454C74.8907 64.595 74.7493 64.5647 74.5878 64.5445C74.4263 64.5243 74.2446 64.5142 74.0427 64.5142H73.6692V67.5628H74.0124V67.5527Z" fill="white"/>
<path d="M78.1816 68.229V63.8379H79.0296V68.229H78.1816Z" fill="white"/>
<path d="M83.2793 67.1085H81.5431L81.0888 68.229H80.1904L82.0175 63.8379H82.7847L84.6118 68.229H83.7235L83.2793 67.1085ZM82.4011 64.8978C82.2396 65.3622 82.0983 65.7357 81.9671 66.0486L81.8055 66.4423H82.9967L82.8352 66.0486C82.7141 65.7357 82.5626 65.3521 82.4011 64.8978Z" fill="white"/>
<path d="M86.621 63.8379V67.5527H88.7813V68.229H85.7832V63.8379H86.621Z" fill="white"/>
<path d="M94.3628 66.0385C94.3628 66.3716 94.3123 66.6745 94.2114 66.9571C94.1105 67.2398 93.9691 67.4719 93.7773 67.6738C93.5855 67.8757 93.3534 68.0372 93.0707 68.1483C92.7881 68.2593 92.4751 68.3199 92.1218 68.3199C91.7685 68.3199 91.4455 68.2694 91.173 68.1483C90.8903 68.0372 90.6581 67.8757 90.4663 67.6738C90.2745 67.4719 90.1332 67.2297 90.0323 66.9571C89.9313 66.6745 89.8809 66.3716 89.8809 66.0385C89.8809 65.7054 89.9313 65.3925 90.0323 65.1199C90.1332 64.8373 90.2745 64.6051 90.4663 64.4032C90.6581 64.2013 90.8903 64.0499 91.173 63.9389C91.4556 63.8278 91.7685 63.7773 92.1218 63.7773C92.4751 63.7773 92.7982 63.8278 93.0707 63.9389C93.3534 64.0499 93.5855 64.2114 93.7773 64.4032C93.9691 64.6051 94.1105 64.8474 94.2114 65.1199C94.3123 65.3925 94.3628 65.6953 94.3628 66.0385ZM93.4947 66.0385C93.4947 65.7761 93.4644 65.5338 93.3937 65.342C93.3231 65.1401 93.2322 64.9786 93.1111 64.8373C92.99 64.706 92.8486 64.6051 92.677 64.5344C92.5054 64.4739 92.3237 64.4335 92.1319 64.4335C91.93 64.4335 91.7483 64.4638 91.5767 64.5344C91.4051 64.6051 91.2638 64.6959 91.1427 64.8373C91.0215 64.9685 90.9206 65.1401 90.86 65.342C90.7894 65.5439 90.7591 65.7761 90.7591 66.0385C90.7591 66.301 90.7894 66.5331 90.86 66.735C90.9307 66.9369 91.0215 67.0984 91.1427 67.2297C91.2638 67.3609 91.4051 67.4618 91.5767 67.5224C91.7483 67.5931 91.93 67.6233 92.1319 67.6233C92.3338 67.6233 92.5155 67.5931 92.677 67.5224C92.8385 67.4517 92.99 67.3609 93.1111 67.2297C93.2322 67.0984 93.3231 66.9268 93.3937 66.735C93.4543 66.5331 93.4947 66.301 93.4947 66.0385Z" fill="white"/>
<path d="M98.6335 66.554H97.6039V65.8777H99.4814V68.0884C99.4108 68.1085 99.3199 68.1388 99.219 68.159C99.1079 68.1893 98.9969 68.2095 98.8657 68.2297C98.7344 68.2499 98.5931 68.2701 98.4619 68.2801C98.3206 68.2902 98.1792 68.3003 98.048 68.3003C97.6341 68.3003 97.2707 68.2499 96.9679 68.1388C96.655 68.0379 96.4026 67.8865 96.2007 67.6947C95.9988 67.5029 95.8373 67.2707 95.7364 67.0082C95.6354 66.7458 95.585 66.453 95.585 66.13C95.585 65.9079 95.6152 65.6859 95.6657 65.484C95.7162 65.272 95.7969 65.0903 95.908 64.9086C96.0089 64.737 96.1402 64.5755 96.2916 64.4341C96.443 64.2928 96.6146 64.1717 96.8064 64.0707C96.9982 63.9698 97.2102 63.889 97.4322 63.8386C97.6644 63.7881 97.9067 63.7578 98.1692 63.7578C98.4013 63.7578 98.6234 63.778 98.8354 63.8083C99.0474 63.8386 99.219 63.8789 99.3502 63.9294V64.6058C99.1685 64.5553 98.9868 64.5048 98.8051 64.4846C98.6234 64.4543 98.4417 64.4442 98.2499 64.4442C97.9975 64.4442 97.7654 64.4846 97.5433 64.5553C97.3313 64.6259 97.1395 64.7269 96.978 64.8682C96.8165 65.0095 96.6954 65.1811 96.6045 65.383C96.5136 65.5849 96.4632 65.8171 96.4632 66.0896C96.4632 66.6045 96.6045 66.9982 96.8872 67.2505C97.1698 67.513 97.5736 67.6442 98.0884 67.6442C98.1893 67.6442 98.2802 67.6341 98.3912 67.6341C98.4922 67.624 98.583 67.6139 98.6638 67.5937V66.554H98.6335Z" fill="white"/>
<path d="M115.248 67.5527H117.509V68.229H114.4V63.8379H117.388V64.5142H115.248V65.6448H117.086V66.3211H115.248V67.5527Z" fill="white"/>
<path d="M121.315 65.877C121.648 66.3211 121.911 66.7249 122.123 67.0681H122.143C122.113 66.5028 122.103 66.0789 122.103 65.8265V63.8379H122.951V68.229H122.062L120.558 66.2101C120.296 65.8568 120.023 65.453 119.741 64.9887H119.72C119.751 65.5237 119.761 65.9476 119.761 66.2404V68.229H118.923V63.8379H119.811L121.315 65.877Z" fill="white"/>
<path d="M127.413 66.554H126.383V65.8777H128.261V68.0884C128.19 68.1085 128.099 68.1388 127.998 68.159C127.887 68.1893 127.776 68.2095 127.645 68.2297C127.514 68.2499 127.372 68.2701 127.241 68.2801C127.1 68.2902 126.959 68.3003 126.827 68.3003C126.413 68.3003 126.05 68.2499 125.747 68.1388C125.434 68.0379 125.182 67.8865 124.98 67.6947C124.778 67.5029 124.617 67.2707 124.516 67.0082C124.415 66.7458 124.364 66.453 124.364 66.13C124.364 65.9079 124.395 65.6859 124.445 65.484C124.495 65.272 124.576 65.0903 124.687 64.9086C124.788 64.737 124.919 64.5755 125.071 64.4341C125.222 64.2928 125.394 64.1717 125.586 64.0707C125.777 63.9698 125.989 63.889 126.212 63.8386C126.444 63.7881 126.686 63.7578 126.948 63.7578C127.181 63.7578 127.403 63.778 127.615 63.8083C127.827 63.8386 127.998 63.8789 128.13 63.9294V64.6058C127.948 64.5553 127.766 64.5048 127.584 64.4846C127.403 64.4543 127.221 64.4442 127.029 64.4442C126.777 64.4442 126.545 64.4846 126.323 64.5553C126.101 64.6259 125.919 64.7269 125.757 64.8682C125.596 65.0095 125.475 65.1811 125.384 65.383C125.293 65.5849 125.242 65.8171 125.242 66.0896C125.242 66.6045 125.384 66.9982 125.666 67.2505C125.949 67.513 126.353 67.6442 126.868 67.6442C126.969 67.6442 127.059 67.6341 127.171 67.6341C127.271 67.624 127.362 67.6139 127.443 67.5937V66.554H127.413Z" fill="white"/>
<path d="M129.795 68.229V63.8379H130.633V68.229H129.795Z" fill="white"/>
<path d="M134.651 65.877C134.984 66.3211 135.246 66.7249 135.458 67.0681H135.478C135.448 66.5028 135.438 66.0789 135.438 65.8265V63.8379H136.276V68.229H135.387L133.883 66.2101C133.621 65.8568 133.348 65.453 133.066 64.9887H133.046C133.076 65.5237 133.086 65.9476 133.086 66.2404V68.229H132.248V63.8379H133.136L134.651 65.877Z" fill="white"/>
<path d="M138.729 67.5527H140.99V68.229H137.881V63.8379H140.869V64.5142H138.729V65.6448H140.566V66.3211H138.729V67.5527Z" fill="white"/>
<path d="M102.792 68.3098C102.55 68.3098 102.338 68.2896 102.146 68.2391C101.954 68.1987 101.783 68.1281 101.641 68.0473C101.49 67.9665 101.369 67.8555 101.268 67.7344C101.167 67.6132 101.086 67.4719 101.015 67.3205C100.965 67.1994 100.924 67.058 100.904 66.9167C100.884 66.7653 100.874 66.6038 100.874 66.4221V63.8379H101.712V66.3514C101.712 66.6644 101.752 66.9066 101.833 67.0782C101.924 67.27 102.045 67.4113 102.217 67.5022C102.388 67.593 102.58 67.6334 102.812 67.6334C103.044 67.6334 103.236 67.593 103.408 67.5022C103.579 67.4113 103.7 67.2801 103.791 67.0782C103.872 66.9066 103.912 66.6644 103.912 66.3514V63.8379H104.75V66.4221C104.75 66.6038 104.74 66.7754 104.72 66.9167C104.7 67.0681 104.659 67.1994 104.609 67.3205C104.548 67.4719 104.468 67.6132 104.357 67.7344C104.256 67.8555 104.124 67.9564 103.973 68.0473C103.822 68.1281 103.65 68.1987 103.458 68.2391C103.246 68.2896 103.034 68.3098 102.792 68.3098Z" fill="white"/>
<path d="M107.143 67.5937H109.404V68.27H106.295V63.8789H109.283V64.5552H107.143V65.6858H108.98V66.3622H107.143V67.5937Z" fill="white"/>
</g>
<defs>
<clipPath id="clip0_401_2332">
<rect width="141" height="68.3095" fill="white"/>
</clipPath>
</defs>
</svg>
