<?xml version="1.0" standalone="no"?>
<!DOCTYPE svg PUBLIC "-//W3C//DTD SVG 20010904//EN"
 "http://www.w3.org/TR/2001/REC-SVG-20010904/DTD/svg10.dtd">
<svg version="1.0" xmlns="http://www.w3.org/2000/svg"
 width="156.000000pt" height="156.000000pt" viewBox="0 0 156.000000 156.000000"
 preserveAspectRatio="xMidYMid meet">
<metadata>
Created by potrace 1.14, written by Peter Selinger 2001-2017
</metadata>
<g transform="translate(0.000000,156.000000) scale(0.100000,-0.100000)"
fill="#000000" stroke="none">
<path d="M1388 1343 c-67 -42 -66 -146 2 -186 60 -36 134 -9 160 57 35 93 -77
182 -162 129z"/>
<path d="M2 1008 l3 -83 110 0 110 0 0 -276 c1 -274 1 -277 26 -325 29 -56 94
-101 161 -110 l44 -6 0 358 0 359 112 0 c92 0 112 3 113 15 1 16 1 130 0 143
-1 4 -154 7 -341 7 l-341 0 3 -82z"/>
<path d="M1007 1070 c-14 -12 -50 -64 -79 -118 -29 -53 -57 -105 -63 -114 -5
-9 -21 -36 -33 -60 -13 -24 -74 -132 -134 -242 -117 -208 -127 -240 -94 -291
29 -45 59 -50 267 -49 107 1 199 2 206 3 6 1 25 12 41 26 38 32 49 83 27 129
-24 49 -59 63 -165 62 -49 -1 -90 2 -90 5 0 3 30 59 66 125 37 65 75 136 85
156 26 51 32 52 55 10 19 -36 113 -208 169 -307 15 -27 43 -77 61 -110 49 -90
97 -117 161 -90 68 29 68 30 69 420 1 192 -3 367 -8 388 -16 65 -93 96 -156
63 -48 -25 -56 -55 -57 -202 0 -74 -1 -134 -2 -134 -1 0 -37 64 -79 143 -93
170 -125 207 -182 207 -24 0 -49 -8 -65 -20z"/>
</g>
</svg>
